# xmcd
#
# Track frame offsets:
#	150
#	13265
#	25965
#	35151
#	49864
#	62529
#	79315
#	88312
#	97786
#	107975
#	133781
#	143649
#	159414
#	173749
#	183789
#	196991
#	208019
#	219489
#	233566
#	246231
#
# Disc length: 3461 seconds
#
# Revision: 0
# Processed by: cddbd v1.5.2PL0 Copyright (c) Steve Scherf et al.
# Submitted via: audiograbber 1.83.01
#
DISCID=160d8314
DTITLE=Marty Robbins - The Absolutely Essential 3 CD Collection CD3
DYEAR=2018
DGENRE=Country
TTITLE0=Devil Woman
TTITLE1=The Streets Of Laredo
TTITLE2=Ruby Ann
TTITLE3=Don't Worry
TTITLE4=It's Your World
TTITLE5=Ballad Of The Alamo
TTITLE6=Cap And Gown
TTITLE7=Saddle Tramp
TTITLE8=Five Brothers
TTITLE9=San Angelo
TTITLE10=Is There Any Chance?
TTITLE11=Jimmy Martinez
TTITLE12=Ghost Train
TTITLE13=I Can't Help It (If I'm Still In Love With You)
TTITLE14=I Told The Brook
TTITLE15=Sometimes Im Tempted
TTITLE16=The Bend In The River
TTITLE17=Too Far Gone
TTITLE18=Love Cant Wait
TTITLE19=I'll Walk Alone
EXTD=
EXTT0=
EXTT1=
EXTT2=
EXTT3=
EXTT4=
EXTT5=
EXTT6=
EXTT7=
EXTT8=
EXTT9=
EXTT10=
EXTT11=
EXTT12=
EXTT13=
EXTT14=
EXTT15=
EXTT16=
EXTT17=
EXTT18=
EXTT19=
PLAYORDER=
